<svg height="200" viewBox="0 0 200 200" width="200" xmlns="http://www.w3.org/2000/svg"><ellipse cx="100" cy="75" fill="#0d0800" rx="75" ry="65"/><circle cx="100" cy="125" fill="#6b4423" r="42"/><ellipse cx="85" cy="120" rx="6" ry="7"/><ellipse cx="115" cy="120" rx="6" ry="7"/><circle cx="87" cy="118" fill="#fff" opacity=".8" r="2"/><circle cx="117" cy="118" fill="#fff" opacity=".8" r="2"/><path d="m82 140q18 10 36 0" fill="none" stroke="#000" stroke-linecap="round" stroke-width="2.5"/><ellipse cx="140" cy="45" fill="#e74c3c" rx="8" ry="10"/><circle cx="140" cy="40" fill="#e74c3c" r="6"/><circle cx="138" cy="41" r="1.5"/><circle cx="142" cy="39" r="1.5"/><circle cx="140" cy="47" r="1.5"/><path d="m137 36-2-5" stroke="#000" stroke-linecap="round" stroke-width="1.5"/><path d="m143 36 2-5" stroke="#000" stroke-linecap="round" stroke-width="1.5"/><circle cx="135" cy="31" r="1.5"/><circle cx="145" cy="31" r="1.5"/><g stroke="#000"><path d="m134 43-4-2" stroke-linecap="round" stroke-width="1.5"/><path d="m133 48-4 2" stroke-linecap="round" stroke-width="1.5"/><path d="m146 43 4-2" stroke-linecap="round" stroke-width="1.5"/><path d="m147 48 4 2" stroke-linecap="round" stroke-width="1.5"/></g><circle cx="140" cy="45" fill="none" r="12" stroke="#4a90e2" stroke-width="2.5"/><path d="m149 54 7 7" stroke="#4a90e2" stroke-linecap="round" stroke-width="2.5"/></svg>